<?xml version="1.0" standalone="no"?>
<!DOCTYPE svg PUBLIC "-//W3C//DTD SVG 20010904//EN"
 "http://www.w3.org/TR/2001/REC-SVG-20010904/DTD/svg10.dtd">
<svg version="1.0" xmlns="http://www.w3.org/2000/svg"
 width="223.000000pt" height="223.000000pt" viewBox="0 0 223.000000 223.000000"
 preserveAspectRatio="xMidYMid meet">
<metadata>
Created by potrace 1.11, written by Peter Selinger 2001-2013
</metadata>
<g transform="translate(0.000000,223.000000) scale(0.100000,-0.100000)"
fill="#000000" stroke="none">
<path d="M1010 2224 c-104 -15 -176 -30 -230 -46 -83 -25 -250 -106 -257 -124
-3 -8 1 -36 10 -62 8 -26 18 -60 22 -77 10 -45 12 -51 45 -175 17 -63 32 -122
34 -130 2 -8 16 -60 31 -115 15 -55 28 -107 30 -115 2 -8 13 -51 25 -95 48
-179 97 -405 99 -452 2 -49 20 -19 41 68 21 87 123 459 156 565 l15 52 79 1
c43 1 81 -3 85 -9 3 -5 22 -67 41 -137 19 -70 49 -177 65 -238 17 -60 32 -117
34 -125 2 -8 14 -51 26 -95 12 -44 21 -88 21 -97 0 -10 2 -18 6 -18 4 0 14 33
21 73 7 39 47 205 87 367 41 162 76 302 78 310 2 8 23 87 46 175 23 88 43 167
45 176 2 8 11 46 20 83 20 79 24 74 -91 130 -147 73 -295 108 -469 111 -55 0
-107 0 -115 -1z"/>
<path d="M297 1877 c-210 -259 -295 -478 -295 -752 0 -302 109 -572 316 -782
468 -477 1236 -439 1658 82 150 186 231 411 239 665 9 285 -90 556 -283 770
-30 33 -42 41 -46 30 -5 -15 -234 -880 -241 -912 -2 -10 -15 -59 -29 -110 -14
-51 -34 -129 -46 -173 -12 -44 -25 -97 -31 -117 l-9 -37 -127 2 c-103 2 -127
5 -129 17 -1 8 -20 78 -42 155 -49 172 -103 371 -109 405 -7 38 -11 36 -22
-11 -11 -43 -116 -415 -146 -515 l-15 -50 -123 -2 -124 -2 -13 42 c-7 24 -17
57 -21 73 -14 45 -129 477 -134 500 -2 11 -29 112 -60 225 -31 113 -58 214
-60 224 -2 10 -15 58 -29 105 -13 47 -30 110 -37 139 -7 28 -15 52 -18 52 -3
-1 -14 -11 -24 -23z"/>
</g>
</svg>
